<svg version="1" xmlns="http://www.w3.org/2000/svg" width="933.333" height="933.333" viewBox="0 0 700.000000 700.000000"><path d="M340 58.2c-24.2 3.8-47.1 17.5-62.5 37.1-6.4 8.1-17.3 29.6-18.9 37.2-.2.5-.8 2.8-1.4 5-4 14-6 43.7-4.1 58.6.5 3.5 1.1 8.2 1.4 10.3.3 2.1 1.5 7.5 2.7 12 7.2 26.9 23.5 51.1 43.2 64.1 11.6 7.6 26.6 13.6 37.4 15.1 2.6.3 5 .8 5.4 1.1 1.6.9 23.5.4 30.3-.7 8.9-1.4 19.5-4.5 26.5-7.8 5.6-2.5 18.3-10.4 20.5-12.5.6-.7 2.7-2.6 4.6-4.2 18.3-16.2 32.4-45.2 35.7-73.5.9-8.3.9-35.6 0-43.5-2.4-19.6-10.2-41.3-20-55.9-8.8-12.9-23.8-26.1-37.3-32.8-7.4-3.8-19.5-7.7-28.3-9.2-8.6-1.5-26.9-1.8-35.2-.4zm35.5 38.3c14.7 4.9 24.4 13.4 32.8 28.6 10.7 19.6 14.3 54.5 8.3 82.4-5.5 25.9-19.7 44.2-39.8 51.6-6.7 2.4-12.4 3.2-21.8 3.1-7.4-.1-8.4-.3-14.5-1.7-4.9-1.2-14.6-6.4-19.3-10.2-9.8-8-19.8-25.4-22.8-39.4-.7-3.5-2.2-11.9-2.8-15.9-.8-4.6-.8-28.3-.1-34 4.6-36.8 22.3-60.9 49-66.3 9.9-2 21.8-1.3 31 1.8zM175.5 85.1c-14.3 6.1-27.3 11.6-29 12.4-1.6.7-5.9 2.5-9.5 4-3.6 1.5-8.9 3.8-11.8 5.1-2.9 1.3-5.4 2.4-5.6 2.4-.4 0-33.5 13.9-39.1 16.5-1.6.7-5.9 2.5-9.5 4-3.6 1.4-8.7 3.6-11.5 4.9-2.7 1.2-17.3 7.4-32.2 13.7L0 159.5v37.2l8.3 3.5c4.5 2 20.1 8.6 34.7 14.8 30.1 12.8 76.2 32.3 124.7 52.9 18.3 7.8 33.6 14.1 34 14.1.5 0 3.2-7.5 6.2-16.8 3-9.2 5.6-17.2 5.8-17.8.2-.6-6.2-3.8-14.9-7.3-8.4-3.5-17.8-7.4-20.8-8.7-4.7-2-21.4-8.9-98.5-40.6-6.6-2.7-14.9-6.1-18.5-7.5-3.6-1.4-6.9-3-7.5-3.4-.5-.5-1.7-.9-2.7-.9-3.6 0-1.7-1.6 5.5-4.4 13.5-5.5 65.2-26.7 67.2-27.6 1.1-.5 16-6.5 33-13.5 49.9-20.3 56-22.8 56.7-23.5.7-.5-9.7-33.7-11.1-35.2-.3-.4-12.3 4.3-26.6 10.3zM332.7 333.6c-.1.1-5.8.4-12.7.8-6.9.4-13.8.8-15.5 1-7.1.8-13.3 1.7-18 2.6-2.7.5-6.6 1.2-8.5 1.5-1.9.3-8.4 1.7-14.4 3.1-6 1.3-11 2.4-11.2 2.4-.2 0-.4 67-.4 149v149h44.9v-35.8c0-19.6 0-39.4.1-44V555l4.8 2.4c5.3 2.7 21.9 8.1 27.2 9 13.2 2 29 2.5 40.5 1.2 34.7-3.9 63.4-23.5 78.4-53.5 3.8-7.5 9.7-24 10.7-29.7.2-1.6 1-5.4 1.6-8.4.6-3 1.2-13.8 1.2-24 0-22-1.9-33.6-8.5-50.1-15.4-38.5-49.4-62.7-94.4-67.5-6.1-.6-25.3-1.2-25.8-.8zm23.8 36.5c18.8 3.4 35.4 13.8 45.5 28.4 4.6 6.7 9.1 17.2 11.2 26 3 13.1 3.3 40.4.5 53-7.1 31.6-24.1 49.5-51.7 54.1-7.3 1.3-24 .7-31.5-1-9.1-2.2-23.9-8.1-29.2-11.8l-4.3-2.9v-6.7c-.1-8.8-.1-124.2 0-130.8v-5l6.3-1.3c14.4-2.8 42.8-3.9 53.2-2zM491.7 401.6c-3.2 9.7-5.5 18-5 18.4.7.7 9.1 4.2 51.3 21.5 60.7 24.8 111.6 45.7 112.3 46.2.5.3-10.5 5.3-24.4 11-14 5.7-27.3 11.3-29.6 12.4-2.4 1-4.5 1.9-4.8 1.9-.5 0-4 1.4-12 5-1.1.5-11 4.6-22 9-30.4 12.4-71 29.2-71.3 29.5-.7.7 11.2 35.5 12.1 35.5.9 0 45.5-18.6 55.4-23.1 2.3-1 4.4-1.9 4.7-1.9.3 0 3.1-1.2 6.3-2.6 7.2-3.3 7.6-3.4 31.3-13.4 10.7-4.5 20.9-8.8 22.5-9.5 1.7-.8 16.5-7.1 33-14 32.6-13.8 33.1-14 42.3-18.1l6.2-2.8-.2-18.5-.3-18.6L637 443c-34.4-14.6-71.5-30.3-82.5-34.9-11-4.6-22.5-9.5-25.5-10.8-6.3-2.9-31.1-13.3-31.3-13.3-.1 0-2.8 8-6 17.6z"/></svg>